<?xml version="1.0" encoding="UTF-8"?>
<svg xmlns="http://www.w3.org/2000/svg" style="stroke-dasharray:none; shape-rendering:auto; font-family:'Arial'; text-rendering:auto; fill-opacity:1; color-interpolation:auto; color-rendering:auto; font-size:12; fill:black; stroke:black; image-rendering:auto; stroke-miterlimit:10; stroke-linecap:square; stroke-linejoin:miter; font-style:normal; stroke-width:1; stroke-dashoffset:0; font-weight:normal; stroke-opacity:1;" contentScriptType="text/ecmascript" preserveAspectRatio="xMidYMid meet" zoomAndPan="magnify" version="1.0" contentStyleType="text/css" xml:xlink="http://www.w3.org/1999/xlink" width="733" height="577"><rect x="0" y="24" width="733" height="109" ry="0" rx="0" style="stroke:#000000; fill:#C0C0C0" /><g componentSequence="4"><text x="-78" y="7" transform="rotate(270)" text-anchor="middle" style="font-weight:bold;font-size:10px;stroke:none; fill:#434343"><tspan dy="14" x="-78">Solicitação</tspan></text></g><rect x="0" y="132" width="733" height="301" ry="0" rx="0" style="stroke:#000000; fill:#82B0B7" /><g componentSequence="3"><text x="-282" y="7" transform="rotate(270)" text-anchor="middle" style="font-weight:bold;font-size:10px;stroke:none; fill:#434343"><tspan dy="14" x="-282">Autorização do Borderô</tspan></text></g><rect x="480" y="432" width="253" height="145" ry="0" rx="0" style="stroke:#000000; fill:#FF0000" /><g componentSequence="2"><text x="-504" y="487" transform="rotate(270)" text-anchor="middle" style="font-weight:bold;font-size:10px;stroke:none; fill:#434343"><tspan dy="14" x="-504">Desautorizado</tspan></text></g><rect x="0" y="432" width="481" height="145" ry="0" rx="0" style="stroke:#000000; fill:#008000" /><g componentSequence="1"><text x="-504" y="7" transform="rotate(270)" text-anchor="middle" style="font-weight:bold;font-size:10px;stroke:none; fill:#434343"><tspan dy="14" x="-504">Autorizado</tspan></text></g><g sequence="1"><rect x="612" y="228" width="106" height="84" ry="5" rx="5" style="fill:url(#linearGradientF8FBFEEDF5FCDEEDFAD4E7F8E2E5E9_1671651472);" stroke="191970" /></g><g componentSequence="1"><text x="665" y="243" text-anchor="middle" style="font-weight:bold;font-size:10px;stroke:none; fill:#333399"><tspan dy="14" x="665">Autorização</tspan><tspan dy="14" x="665">Gerente</tspan><tspan dy="14" x="665">Financeiro</tspan></text></g><g sequence="5"><ellipse cx="665" cy="53" rx="17" ry="17" stroke-width="1" style="fill:url(#linearGradient66FF6696FF96B6FFB6_1835303572);" stroke="336633" /></g><g sequence="7"><ellipse cx="137" cy="522" rx="17" ry="17" stroke-width="3" style="fill:url(#linearGradientFF6666FF9696FFB6B6_1767574496);" stroke="993333" /></g><g sequence="10"><ellipse cx="665" cy="533" rx="17" ry="17" stroke-width="3" style="fill:url(#linearGradientFF6666FF9696FFB6B6_744065199);" stroke="993333" /></g><g sequence="12"><rect x="372" y="144" width="106" height="98" ry="5" rx="5" style="fill:url(#linearGradientF8FBFEEDF5FCDEEDFAD4E7F8E2E5E9_1409731156);" stroke="191970" /></g><g componentSequence="12"><text x="425" y="159" text-anchor="middle" style="font-weight:bold;font-size:10px;stroke:none; fill:#333399"><tspan dy="14" x="425">Autorização</tspan><tspan dy="14" x="425">Vice Presidência</tspan><tspan dy="14" x="425">Financeira</tspan></text></g><g sequence="14"><rect x="84" y="168" width="106" height="84" ry="5" rx="5" style="fill:url(#linearGradientF8FBFEEDF5FCDEEDFAD4E7F8E2E5E9_490701410);" stroke="191970" /></g><g componentSequence="14"><text x="137" y="183" text-anchor="middle" style="font-weight:bold;font-size:10px;stroke:none; fill:#333399"><tspan dy="14" x="137">Autorização</tspan><tspan dy="14" x="137">Secretaria Geral</tspan></text></g><g sequence="22"><rect x="372" y="324" width="106" height="70" ry="5" rx="5" style="fill:url(#linearGradientF8FBFEEDF5FCDEEDFAD4E7F8E2E5E9_747281966);" stroke="191970" /></g><g componentSequence="22"><text x="425" y="339" text-anchor="middle" style="font-weight:bold;font-size:10px;stroke:none; fill:#333399"><tspan dy="14" x="425">Autorização</tspan><tspan dy="14" x="425">Divisão Jurídica</tspan></text></g><g sequence="29"><rect x="84" y="324" width="106" height="84" ry="5" rx="5" style="fill:url(#linearGradientF8FBFEEDF5FCDEEDFAD4E7F8E2E5E9_1282832352);" stroke="191970" /></g><g componentSequence="29"><text x="137" y="339" text-anchor="middle" style="font-weight:bold;font-size:10px;stroke:none; fill:#333399"><tspan dy="14" x="137">Autorizado -</tspan><tspan dy="14" x="137">Liberar borderô</tspan><tspan dy="14" x="137">caixa</tspan></text></g><rect x="510" y="52" width="105" height="55" ry="5" rx="5" style="stroke:none; fill:#FFFFE0" /><g componentSequence="32"><text x="520" y="65" text-anchor="left" style="font-weight:bold;font-size:10px;stroke:none; fill:#000000"><tspan dy="14" x="520">Grupo w_VPF</tspan></text></g><path style="fill:none; stroke-width:1; stroke:#000000;" d="M530.0 52.0 L510.0 52.0 L510.0 107.0 L530.0 107.0" /><rect x="510" y="350" width="105" height="55" ry="5" rx="5" style="stroke:none; fill:#FFFFE0" /><g componentSequence="34"><text x="520" y="363" text-anchor="left" style="font-weight:bold;font-size:10px;stroke:none; fill:#000000"><tspan dy="14" x="520">Grupo w_DJ</tspan></text></g><path style="fill:none; stroke-width:1; stroke:#000000;" d="M530.0 350.0 L510.0 350.0 L510.0 405.0 L530.0 405.0" /><rect x="160" y="79" width="105" height="55" ry="5" rx="5" style="stroke:none; fill:#FFFFE0" /><g componentSequence="36"><text x="170" y="92" text-anchor="left" style="font-weight:bold;font-size:10px;stroke:none; fill:#000000"><tspan dy="14" x="170">Grupo w_SG</tspan></text></g><path style="fill:none; stroke-width:1; stroke:#000000;" d="M180.0 79.0 L160.0 79.0 L160.0 134.0 L180.0 134.0" /><g componentSequence="9"><text x="675" y="149" style="font-size:10px;font-weight:none;stroke:none; fill:#333399" text-anchor="left" /></g><g componentSequence="15"><text x="291" y="201" style="font-size:10px;font-weight:none;stroke:none; fill:#333399" text-anchor="left" /></g><g componentSequence="16"><text x="350" y="462" style="font-size:10px;font-weight:none;stroke:none; fill:#333399" text-anchor="left" /></g><g componentSequence="25"><text x="555" y="231" style="font-size:10px;font-weight:none;stroke:none; fill:#333399" text-anchor="left" /></g><g componentSequence="26"><text x="555" y="314" style="font-size:10px;font-weight:none;stroke:none; fill:#333399" text-anchor="left" /></g><g componentSequence="27"><text x="476" y="533" style="font-size:10px;font-weight:none;stroke:none; fill:#333399" text-anchor="left" /></g><g componentSequence="28"><text x="435" y="283" style="font-size:10px;font-weight:none;stroke:none; fill:#333399" text-anchor="left" /></g><g componentSequence="30"><text x="147" y="456" style="font-size:10px;font-weight:none;stroke:none; fill:#333399" text-anchor="left" /></g><g componentSequence="31"><text x="147" y="288" style="font-size:10px;font-weight:none;stroke:none; fill:#333399" text-anchor="left" /></g><g componentSequence="42"><text x="398" y="515" style="font-size:10px;font-weight:none;stroke:none; fill:#333399" text-anchor="left" /></g><g componentSequence="43"><text x="675" y="414" style="font-size:10px;font-weight:none;stroke:none; fill:#333399" text-anchor="left" /></g><g componentSequence="44"><text x="374" y="488" style="font-size:10px;font-weight:none;stroke:none; fill:#333399" text-anchor="left" /></g><g componentSequence="33"><text x="513" y="128" style="font-size:10px;font-weight:none;stroke:none; fill:#333399" text-anchor="left" /></g><g componentSequence="35"><text x="504" y="368" style="font-size:10px;font-weight:none;stroke:none; fill:#333399" text-anchor="left" /></g><g componentSequence="37"><text x="190" y="151" style="font-size:10px;font-weight:none;stroke:none; fill:#333399" text-anchor="left" /></g><path style="fill:none; stroke:#000000;stroke-width:1" d="M611.0 252.0 L478.0 210.0" /><polygon style="fill:#000000; stroke:#000000;" points=" 486 218 478 210 489 208 486 212" /><path style="fill:none; stroke:#000000;stroke-width:1" d="M611.0 289.0 L478.0 339.0" /><polygon style="fill:#000000; stroke:#000000;" points=" 489 340 478 339 486 331 485 336" /><path style="fill:none; stroke:#000000;stroke-width:1" d="M665.0 312.0 L665.0 515.0" /><polygon style="fill:#000000; stroke:#000000;" points=" 670 505 665 515 660 505 665 507" /><path style="fill:none; stroke:#000000;stroke-width:1" d="M665.0 71.0 L665.0 227.0" /><polygon style="fill:#000000; stroke:#000000;" points=" 670 217 665 227 660 217 665 219" /><path style="fill:none; stroke:#000000;stroke-width:1" d="M137.0 408.0 L137.0 504.0" /><polygon style="fill:#000000; stroke:#000000;" points=" 142 494 137 504 132 494 137 496" /><path style="fill:none; stroke:#000000;stroke-width:1" d="M371.0 230.0 L232.0 328.0 L397.0 533.0 L647.0 533.0" /><polygon style="fill:#000000; stroke:#000000;" points=" 637 528 647 533 637 538 639 533" /><path style="fill:none; stroke:#000000;stroke-width:1" d="M424.0 394.0 L424.0 533.0 L475.0 533.0 L647.0 533.0" /><polygon style="fill:#000000; stroke:#000000;" points=" 637 528 647 533 637 538 639 533" /><path style="fill:none; stroke:#000000;stroke-width:1" d="M190.0 366.0 L260.0 366.0 L404.0 533.0 L647.0 533.0" /><polygon style="fill:#000000; stroke:#000000;" points=" 637 528 647 533 637 538 639 533" /><path style="fill:none; stroke:#000000;stroke-width:1" d="M171.0 252.0 L400.0 533.0 L647.0 533.0" /><polygon style="fill:#000000; stroke:#000000;" points=" 637 528 647 533 637 538 639 533" /><path style="fill:none; stroke:#000000;stroke-width:1" d="M371.0 196.0 L190.0 206.0" /><polygon style="fill:#000000; stroke:#000000;" points=" 200 210 190 206 200 200 198 206" /><path style="fill:none; stroke:#000000;stroke-width:1" d="M425.0 323.0 L425.0 242.0" /><polygon style="fill:#000000; stroke:#000000;" points=" 420 252 425 242 430 252 425 250" /><path style="fill:none; stroke:#000000;stroke-dasharray:2" d="M528.0 107.0 L478.0 148.0" /><path style="fill:none; stroke:#000000;stroke-width:1" d="M137.0 252.0 L137.0 323.0" /><polygon style="fill:#000000; stroke:#000000;" points=" 142 313 137 323 132 313 137 315" /><path style="fill:none; stroke:#000000;stroke-dasharray:2" d="M192.0 134.0 L168.0 167.0" /><path style="fill:none; stroke:#000000;stroke-dasharray:2" d="M509.0 370.0 L478.0 366.0" /><defs><linearGradient xmlns:xlink="http://www.w3.org/1999/xlink" xlink:href="#linearGradientF8FBFEEDF5FCDEEDFAD4E7F8E2E5E9" id="linearGradientF8FBFEEDF5FCDEEDFAD4E7F8E2E5E9_1671651472" x1="0" y1="228.0" x2="0" y2="334.0" gradientUnits="userSpaceOnUse" xlink:type="simple" xlink:actuate="onLoad" xlink:show="other" /><linearGradient id="linearGradientF8FBFEEDF5FCDEEDFAD4E7F8E2E5E9"><stop style="stop-color:#F8FBFE;stop-opacity:1;" offset="0.0" id="stopF8FBFE" /><stop style="stop-color:#EDF5FC;stop-opacity:1;" offset="0.25" id="stopEDF5FC" /><stop style="stop-color:#DEEDFA;stop-opacity:1;" offset="0.5" id="stopDEEDFA" /><stop style="stop-color:#D4E7F8;stop-opacity:1;" offset="0.75" id="stopD4E7F8" /><stop style="stop-color:#E2E5E9;stop-opacity:1;" offset="1.0" id="stopE2E5E9" /></linearGradient><linearGradient xmlns:xlink="http://www.w3.org/1999/xlink" xlink:href="#linearGradient66FF6696FF96B6FFB6" id="linearGradient66FF6696FF96B6FFB6_1835303572" x1="0" y1="36.0" x2="0" y2="71.0" gradientUnits="userSpaceOnUse" xlink:type="simple" xlink:actuate="onLoad" xlink:show="other" /><linearGradient id="linearGradient66FF6696FF96B6FFB6"><stop style="stop-color:#66FF66;stop-opacity:1;" offset="0.0" id="stop66FF66" /><stop style="stop-color:#96FF96;stop-opacity:1;" offset="0.5" id="stop96FF96" /><stop style="stop-color:#B6FFB6;stop-opacity:1;" offset="1.0" id="stopB6FFB6" /></linearGradient><linearGradient xmlns:xlink="http://www.w3.org/1999/xlink" xlink:href="#linearGradientFF6666FF9696FFB6B6" id="linearGradientFF6666FF9696FFB6B6_1767574496" x1="0" y1="505.0" x2="0" y2="540.0" gradientUnits="userSpaceOnUse" xlink:type="simple" xlink:actuate="onLoad" xlink:show="other" /><linearGradient id="linearGradientFF6666FF9696FFB6B6"><stop style="stop-color:#FF6666;stop-opacity:1;" offset="0.0" id="stopFF6666" /><stop style="stop-color:#FF9696;stop-opacity:1;" offset="0.5" id="stopFF9696" /><stop style="stop-color:#FFB6B6;stop-opacity:1;" offset="1.0" id="stopFFB6B6" /></linearGradient><linearGradient xmlns:xlink="http://www.w3.org/1999/xlink" xlink:href="#linearGradientFF6666FF9696FFB6B6" id="linearGradientFF6666FF9696FFB6B6_744065199" x1="0" y1="516.0" x2="0" y2="551.0" gradientUnits="userSpaceOnUse" xlink:type="simple" xlink:actuate="onLoad" xlink:show="other" /><linearGradient xmlns:xlink="http://www.w3.org/1999/xlink" xlink:href="#linearGradientF8FBFEEDF5FCDEEDFAD4E7F8E2E5E9" id="linearGradientF8FBFEEDF5FCDEEDFAD4E7F8E2E5E9_1409731156" x1="0" y1="144.0" x2="0" y2="250.0" gradientUnits="userSpaceOnUse" xlink:type="simple" xlink:actuate="onLoad" xlink:show="other" /><linearGradient xmlns:xlink="http://www.w3.org/1999/xlink" xlink:href="#linearGradientF8FBFEEDF5FCDEEDFAD4E7F8E2E5E9" id="linearGradientF8FBFEEDF5FCDEEDFAD4E7F8E2E5E9_490701410" x1="0" y1="168.0" x2="0" y2="274.0" gradientUnits="userSpaceOnUse" xlink:type="simple" xlink:actuate="onLoad" xlink:show="other" /><linearGradient xmlns:xlink="http://www.w3.org/1999/xlink" xlink:href="#linearGradientF8FBFEEDF5FCDEEDFAD4E7F8E2E5E9" id="linearGradientF8FBFEEDF5FCDEEDFAD4E7F8E2E5E9_747281966" x1="0" y1="324.0" x2="0" y2="430.0" gradientUnits="userSpaceOnUse" xlink:type="simple" xlink:actuate="onLoad" xlink:show="other" /><linearGradient xmlns:xlink="http://www.w3.org/1999/xlink" xlink:href="#linearGradientF8FBFEEDF5FCDEEDFAD4E7F8E2E5E9" id="linearGradientF8FBFEEDF5FCDEEDFAD4E7F8E2E5E9_1282832352" x1="0" y1="324.0" x2="0" y2="430.0" gradientUnits="userSpaceOnUse" xlink:type="simple" xlink:actuate="onLoad" xlink:show="other" /></defs></svg>
